<?xml version="1.0" standalone="no"?>
<!DOCTYPE svg PUBLIC "-//W3C//DTD SVG 20010904//EN"
 "http://www.w3.org/TR/2001/REC-SVG-20010904/DTD/svg10.dtd">
<svg version="1.0" xmlns="http://www.w3.org/2000/svg"
 width="493.000000pt" height="493.000000pt" viewBox="0 0 493.000000 493.000000"
 preserveAspectRatio="xMidYMid meet">
<metadata>
Created by potrace 1.14, written by Peter Selinger 2001-2017
</metadata>
<g transform="translate(0.000000,493.000000) scale(0.100000,-0.100000)"
fill="#000000" stroke="none">
<path d="M2336 4718 c7 -129 30 -190 86 -231 45 -33 63 -39 142 -46 l69 -6
-149 -104 c-82 -58 -151 -108 -154 -111 -3 -4 -23 -19 -45 -33 -47 -32 -32
-21 -315 -222 -124 -88 -235 -167 -247 -175 -11 -8 -65 -46 -119 -85 -54 -38
-108 -77 -120 -85 -13 -8 -96 -67 -186 -131 -90 -64 -176 -119 -193 -123 -48
-12 -92 -44 -109 -80 -14 -30 -15 -94 -10 -587 3 -305 7 -608 9 -674 7 -255
26 -293 305 -625 21 -25 79 -94 130 -155 270 -323 555 -620 785 -820 94 -82
343 -275 355 -275 18 0 547 543 697 716 10 12 38 45 63 73 25 29 58 67 73 84
154 173 578 717 629 807 49 87 60 165 44 325 -12 126 -21 217 -31 330 -3 33
-8 83 -11 110 -10 94 -13 130 -20 215 -3 47 -8 93 -9 103 -2 9 -7 54 -10 100
-18 228 -7 203 -163 365 -144 148 -953 972 -986 1004 -14 12 -17 21 -10 28 6
6 70 41 142 78 151 77 211 123 240 184 23 47 37 108 25 108 -5 0 -43 -11 -86
-25 -42 -14 -110 -28 -150 -32 -39 -3 -86 -12 -103 -19 -48 -20 -101 -89 -131
-171 l-28 -73 -17 34 c-24 46 -56 67 -168 111 -109 43 -160 79 -192 136 -12
21 -25 39 -29 39 -4 0 -6 -28 -3 -62z m417 -340 c13 -18 109 -167 213 -331
104 -163 231 -361 281 -440 51 -78 97 -151 103 -162 5 -11 17 -30 26 -42 l16
-22 -179 -1 c-98 0 -194 -2 -213 -5 l-35 -4 35 20 c37 20 36 20 -43 4 -63 -13
-184 -18 -436 -18 l-276 -1 -90 31 c-63 22 -102 30 -130 27 -37 -5 -201 -7
-290 -5 l-39 1 86 83 c47 45 211 204 365 353 506 495 558 544 570 544 7 0 23
-15 36 -32z"/>
</g>
</svg>
